<svg xmlns="http://www.w3.org/2000/svg" viewBox="0 0 166.11 63.99">
    <defs>
        <style>.cls-1{fill:#fff;}</style>
    </defs>
    <g id="レイヤー_2" data-name="レイヤー 2">
        <g id="レイヤー_1-2" data-name="レイヤー 1">
            <rect class="cls-1" width="6.81" height="49.01"/>
            <polygon class="cls-1"
                     points="28.6 27.91 19.06 0 12.26 0 12.26 49.01 19.06 49.01 19.06 21.07 28.6 49.01 28.61 49.01 35.4 49.01 35.4 0 28.6 0 28.6 27.91"/>
            <path class="cls-1" d="M47.66,21.79h9.53V15H47.66V6.81H59.91V0H47.66a6.81,6.81,0,0,0-6.81,6.81V49h6.81Z"/>
            <path class="cls-1"
                  d="M100.76,49H113V42.2H100.76V6.81H113V0H100.76A6.8,6.8,0,0,0,94,6.81V42.2A6.8,6.8,0,0,0,100.76,49Z"/>
            <path class="cls-1"
                  d="M166.11,42.7V28.38a6.8,6.8,0,0,0-6.81-6.78h-6.81V7.31h12.25V.5H152.49a6.81,6.81,0,0,0-6.81,6.81V21.6a6.8,6.8,0,0,0,6.77,6.8h6.84V42.7H145.69v6.81H159.3A6.81,6.81,0,0,0,166.11,42.7Z"/>
            <path class="cls-1"
                  d="M125.26,49h8.17a6.81,6.81,0,0,0,6.81-6.81V0h-6.81V42.2h-8.17V0h-6.8V42.2A6.8,6.8,0,0,0,125.26,49Z"/>
            <path class="cls-1"
                  d="M70.8,49h10.9A6.81,6.81,0,0,0,88.5,42.2V6.81A6.81,6.81,0,0,0,81.69,0H70.8A6.81,6.81,0,0,0,64,6.81V42.2A6.81,6.81,0,0,0,70.8,49Zm0-42.2H81.69V42.2H70.8Z"/>
            <rect class="cls-1" y="57.18" width="35.4" height="6.81"/>
            <rect class="cls-1" x="40.85" y="57.18" width="125.26" height="6.81"/>
        </g>
    </g>
</svg>